<?xml version="1.0" encoding="UTF-8"?>
<svg xmlns="http://www.w3.org/2000/svg" xmlns:xlink="http://www.w3.org/1999/xlink" width="px" height="24px" viewBox="0 0 18 24" version="1.1">
<defs>
<filter id="alpha" filterUnits="objectBoundingBox" x="0%" y="0%" width="100%" height="100%">
  <feColorMatrix type="matrix" in="SourceGraphic" values="0 0 0 0 1 0 0 0 0 1 0 0 0 0 1 0 0 0 1 0"/>
</filter>
<mask id="mask0">
  <g filter="url(#alpha)">
<rect x="0" y="0" width="18" height="24" style="fill:rgb(0%,0%,0%);fill-opacity:0.968627;stroke:none;"/>
  </g>
</mask>
<clipPath id="clip1">
  <rect x="0" y="0" width="18" height="24"/>
</clipPath>
<g id="surface5" clip-path="url(#clip1)">
<path style=" stroke:none;fill-rule:evenodd;fill:rgb(0%,39.607844%,60.000002%);fill-opacity:1;" d="M 8.242188 -0.0351562 C 8.269531 -0.0351562 8.292969 -0.0351562 8.316406 -0.0351562 C 9.359375 1.632812 10.328125 3.347656 11.230469 5.105469 C 11.289062 5.246094 11.328125 5.386719 11.339844 5.535156 C 11.101562 5.480469 10.910156 5.351562 10.765625 5.144531 C 10.515625 4.996094 10.25 4.886719 9.972656 4.820312 C 10.046875 5.671875 10.480469 6.300781 11.269531 6.714844 C 12.195312 7.078125 13.109375 7.484375 14.003906 7.929688 C 16.460938 9.660156 17.734375 12.042969 17.820312 15.070312 C 17.628906 18.832031 15.828125 21.523438 12.421875 23.144531 C 8.40625 24.542969 4.964844 23.699219 2.089844 20.605469 C 0 17.8125 -0.410156 14.789062 0.863281 11.535156 C 1.355469 10.476562 2.015625 9.535156 2.84375 8.714844 C 2.914062 8.667969 2.988281 8.667969 3.058594 8.714844 C 3.816406 9.464844 4.570312 10.214844 5.328125 10.964844 C 5.53125 10.761719 5.734375 10.558594 5.941406 10.355469 C 6.019531 10.328125 6.066406 10.363281 6.085938 10.464844 C 6.285156 11.246094 6.5 12.019531 6.730469 12.785156 C 5.910156 12.628906 5.09375 12.425781 4.285156 12.179688 C 4.210938 12.144531 4.199219 12.09375 4.246094 12.035156 C 4.441406 11.855469 4.621094 11.664062 4.789062 11.464844 C 4.644531 11.273438 4.476562 11.105469 4.285156 10.964844 C 3.324219 12.011719 2.796875 13.25 2.699219 14.679688 C 2.964844 14.679688 3.226562 14.679688 3.492188 14.679688 C 3.480469 14.367188 3.492188 14.058594 3.527344 13.75 C 4.265625 14.167969 4.996094 14.597656 5.722656 15.035156 C 5.691406 15.105469 5.640625 15.164062 5.578125 15.214844 C 4.917969 15.597656 4.246094 15.964844 3.5625 16.320312 C 3.492188 16.015625 3.46875 15.707031 3.492188 15.394531 C 3.226562 15.394531 2.964844 15.394531 2.699219 15.394531 C 2.78125 16.84375 3.308594 18.105469 4.285156 19.179688 C 4.476562 19.035156 4.644531 18.867188 4.789062 18.679688 C 4.621094 18.476562 4.441406 18.285156 4.246094 18.105469 C 4.199219 18.046875 4.210938 18 4.285156 17.964844 C 5.085938 17.695312 5.902344 17.492188 6.730469 17.355469 C 6.507812 18.1875 6.253906 19.011719 5.976562 19.820312 C 5.761719 19.605469 5.542969 19.394531 5.328125 19.179688 C 5.148438 19.355469 4.96875 19.535156 4.789062 19.714844 C 5.878906 20.660156 7.152344 21.171875 8.605469 21.25 C 8.605469 21.011719 8.605469 20.773438 8.605469 20.535156 C 8.289062 20.558594 7.976562 20.535156 7.667969 20.464844 C 8.082031 19.714844 8.515625 18.976562 8.964844 18.25 C 9.414062 18.976562 9.847656 19.714844 10.261719 20.464844 C 9.953125 20.535156 9.640625 20.558594 9.324219 20.535156 C 9.324219 20.773438 9.324219 21.011719 9.324219 21.25 C 10.777344 21.171875 12.046875 20.660156 13.140625 19.714844 C 12.960938 19.535156 12.78125 19.355469 12.601562 19.179688 C 12.382812 19.394531 12.167969 19.605469 11.953125 19.820312 C 11.671875 19.011719 11.421875 18.1875 11.195312 17.355469 C 12.015625 17.5 12.832031 17.691406 13.644531 17.929688 C 13.710938 17.980469 13.722656 18.039062 13.679688 18.105469 C 13.488281 18.285156 13.308594 18.476562 13.140625 18.679688 C 13.285156 18.867188 13.453125 19.035156 13.644531 19.179688 C 14.621094 18.105469 15.148438 16.84375 15.226562 15.394531 C 14.964844 15.394531 14.699219 15.394531 14.4375 15.394531 C 14.460938 15.707031 14.433594 16.015625 14.363281 16.320312 C 13.683594 15.964844 13.011719 15.597656 12.347656 15.214844 C 12.285156 15.164062 12.238281 15.105469 12.203125 15.035156 C 12.929688 14.597656 13.660156 14.167969 14.398438 13.75 C 14.4375 14.058594 14.449219 14.367188 14.4375 14.679688 C 14.699219 14.679688 14.964844 14.679688 15.226562 14.679688 C 15.132812 13.25 14.605469 12.011719 13.644531 10.964844 C 13.453125 11.105469 13.285156 11.273438 13.140625 11.464844 C 13.308594 11.664062 13.488281 11.855469 13.679688 12.035156 C 13.730469 12.09375 13.71875 12.144531 13.644531 12.179688 C 12.835938 12.425781 12.019531 12.628906 11.195312 12.785156 C 11.429688 11.964844 11.671875 11.140625 11.914062 10.320312 C 12.15625 10.523438 12.382812 10.738281 12.601562 10.964844 C 12.78125 10.785156 12.960938 10.605469 13.140625 10.429688 C 12.175781 9.871094 11.167969 9.394531 10.117188 9 C 8.625 8.199219 7.691406 6.972656 7.308594 5.320312 C 6.882812 5.496094 6.453125 5.652344 6.011719 5.785156 C 5.886719 5.84375 5.765625 5.832031 5.652344 5.75 C 6.230469 5.035156 6.695312 4.25 7.054688 3.394531 C 7.515625 2.273438 7.914062 1.128906 8.242188 -0.0351562 Z M 8.242188 -0.0351562 "/>
</g>
<mask id="mask1">
  <g filter="url(#alpha)">
<rect x="0" y="0" width="18" height="24" style="fill:rgb(0%,0%,0%);fill-opacity:0.980392;stroke:none;"/>
  </g>
</mask>
<clipPath id="clip2">
  <rect x="0" y="0" width="18" height="24"/>
</clipPath>
<g id="surface8" clip-path="url(#clip2)">
<path style=" stroke:none;fill-rule:evenodd;fill:rgb(60.000002%,0%,0%);fill-opacity:1;" d="M 8.460938 12.105469 C 10.214844 11.984375 11.355469 12.746094 11.878906 14.394531 C 12.070312 16.75 10.976562 17.953125 8.605469 18 C 6.664062 17.574219 5.8125 16.371094 6.046875 14.394531 C 6.398438 13.152344 7.203125 12.390625 8.460938 12.105469 Z M 8.460938 12.105469 "/>
</g>
</defs>
<g id="surface1">
<use xlink:href="#surface5" mask="url(#mask0)"/>
<use xlink:href="#surface8" mask="url(#mask1)"/>
</g>
</svg>
