<?xml version="1.0" encoding="UTF-8"?>
<svg xmlns="http://www.w3.org/2000/svg" xmlns:xlink="http://www.w3.org/1999/xlink" width="px" height="24px" viewBox="0 0 24 24" version="1.1">
<defs>
<filter id="alpha" filterUnits="objectBoundingBox" x="0%" y="0%" width="100%" height="100%">
  <feColorMatrix type="matrix" in="SourceGraphic" values="0 0 0 0 1 0 0 0 0 1 0 0 0 0 1 0 0 0 1 0"/>
</filter>
<mask id="mask0">
  <g filter="url(#alpha)">
<rect x="0" y="0" width="24" height="24" style="fill:rgb(0%,0%,0%);fill-opacity:0.972549;stroke:none;"/>
  </g>
</mask>
<clipPath id="clip1">
  <rect x="0" y="0" width="24" height="24"/>
</clipPath>
<g id="surface5" clip-path="url(#clip1)">
<path style=" stroke:none;fill-rule:evenodd;fill:rgb(11.764706%,11.764706%,11.372549%);fill-opacity:1;" d="M 17.4375 2.1875 C 17.4375 2.269531 17.480469 2.3125 17.5625 2.3125 C 18.257812 2.734375 18.902344 3.234375 19.5 3.8125 C 19.589844 3.695312 19.695312 3.671875 19.8125 3.75 C 20.125 4.007812 20.292969 4.296875 20.3125 4.625 C 20.457031 4.769531 20.605469 4.917969 20.75 5.0625 C 21.136719 5.226562 21.40625 5.558594 21.5625 6.0625 C 21.496094 6.070312 21.453125 6.113281 21.4375 6.1875 C 22.386719 7.71875 22.863281 9.386719 22.875 11.1875 C 23.046875 12.613281 22.902344 13.988281 22.4375 15.3125 C 22.621094 14.195312 22.746094 13.070312 22.8125 11.9375 C 22.269531 11.9375 21.730469 11.9375 21.1875 11.9375 C 21.222656 11.699219 21.179688 11.488281 21.0625 11.3125 C 20.589844 7.1875 18.382812 4.457031 14.4375 3.125 C 9.976562 2.117188 6.496094 3.511719 4 7.3125 C 3.3125 8.5625 2.917969 9.894531 2.8125 11.3125 C 2.695312 11.488281 2.652344 11.699219 2.6875 11.9375 C 2.105469 11.9375 1.519531 11.9375 0.9375 11.9375 C 0.9375 12.1875 0.9375 12.4375 0.9375 12.6875 C 0.722656 10.375 1.222656 8.210938 2.4375 6.1875 C 2.421875 6.113281 2.378906 6.070312 2.3125 6.0625 C 2.46875 5.558594 2.738281 5.226562 3.125 5.0625 C 3.269531 4.917969 3.417969 4.769531 3.5625 4.625 C 3.582031 4.296875 3.75 4.007812 4.0625 3.75 C 4.179688 3.671875 4.285156 3.695312 4.375 3.8125 C 4.972656 3.234375 5.617188 2.734375 6.3125 2.3125 C 6.394531 2.3125 6.4375 2.269531 6.4375 2.1875 C 10.105469 0.355469 13.769531 0.355469 17.4375 2.1875 Z M 17.4375 2.1875 "/>
</g>
<mask id="mask1">
  <g filter="url(#alpha)">
<rect x="0" y="0" width="24" height="24" style="fill:rgb(0%,0%,0%);fill-opacity:0.00784314;stroke:none;"/>
  </g>
</mask>
<clipPath id="clip2">
  <rect x="0" y="0" width="24" height="24"/>
</clipPath>
<g id="surface8" clip-path="url(#clip2)">
<path style=" stroke:none;fill-rule:evenodd;fill:rgb(6.666667%,6.666667%,6.666667%);fill-opacity:1;" d="M 6.4375 2.1875 C 6.355469 2.1875 6.3125 2.230469 6.3125 2.3125 C 6.003906 2.28125 6.003906 2.199219 6.3125 2.0625 C 6.386719 2.078125 6.429688 2.121094 6.4375 2.1875 Z M 6.4375 2.1875 "/>
</g>
<mask id="mask2">
  <g filter="url(#alpha)">
<rect x="0" y="0" width="24" height="24" style="fill:rgb(0%,0%,0%);fill-opacity:0.00784314;stroke:none;"/>
  </g>
</mask>
<clipPath id="clip3">
  <rect x="0" y="0" width="24" height="24"/>
</clipPath>
<g id="surface11" clip-path="url(#clip3)">
<path style=" stroke:none;fill-rule:evenodd;fill:rgb(6.666667%,6.666667%,6.666667%);fill-opacity:1;" d="M 17.4375 2.1875 C 17.5625 2.035156 17.6875 2.058594 17.8125 2.25 C 17.738281 2.308594 17.65625 2.328125 17.5625 2.3125 C 17.480469 2.3125 17.4375 2.269531 17.4375 2.1875 Z M 17.4375 2.1875 "/>
</g>
<mask id="mask3">
  <g filter="url(#alpha)">
<rect x="0" y="0" width="24" height="24" style="fill:rgb(0%,0%,0%);fill-opacity:0.0745098;stroke:none;"/>
  </g>
</mask>
<clipPath id="clip4">
  <rect x="0" y="0" width="24" height="24"/>
</clipPath>
<g id="surface14" clip-path="url(#clip4)">
<path style=" stroke:none;fill-rule:evenodd;fill:rgb(0.392157%,0.392157%,0.392157%);fill-opacity:1;" d="M 2.3125 6.0625 C 2.378906 6.070312 2.421875 6.113281 2.4375 6.1875 C 1.222656 8.210938 0.722656 10.375 0.9375 12.6875 C 1.417969 17.230469 3.753906 20.417969 7.9375 22.25 C 13.199219 23.914062 17.554688 22.601562 21 18.3125 C 21.582031 17.355469 22.0625 16.355469 22.4375 15.3125 C 22.902344 13.988281 23.046875 12.613281 22.875 11.1875 C 22.863281 9.386719 22.386719 7.71875 21.4375 6.1875 C 21.453125 6.113281 21.496094 6.070312 21.5625 6.0625 C 23.21875 8.703125 23.78125 11.578125 23.25 14.6875 C 21.976562 19.691406 18.828125 22.773438 13.8125 23.9375 C 12.5625 23.9375 11.3125 23.9375 10.0625 23.9375 C 5.046875 22.773438 1.898438 19.691406 0.625 14.6875 C 0.09375 11.578125 0.65625 8.703125 2.3125 6.0625 Z M 2.3125 6.0625 "/>
</g>
</defs>
<g id="surface1">
<use xlink:href="#surface5" mask="url(#mask0)"/>
<use xlink:href="#surface8" mask="url(#mask1)"/>
<use xlink:href="#surface11" mask="url(#mask2)"/>
<path style=" stroke:none;fill-rule:evenodd;fill:rgb(48.627451%,67.843139%,25.490198%);fill-opacity:1;" d="M 21.0625 11.3125 C 21.0625 11.519531 21.0625 11.730469 21.0625 11.9375 C 19.019531 11.9375 16.980469 11.9375 14.9375 11.9375 C 15.660156 10.160156 16.449219 8.410156 17.3125 6.6875 C 17.269531 6.644531 17.230469 6.605469 17.1875 6.5625 C 14.796875 7.628906 12.421875 8.734375 10.0625 9.875 C 9.652344 10.550781 9.277344 11.238281 8.9375 11.9375 C 6.894531 11.9375 4.855469 11.9375 2.8125 11.9375 C 2.8125 11.730469 2.8125 11.519531 2.8125 11.3125 C 2.917969 9.894531 3.3125 8.5625 4 7.3125 C 6.496094 3.511719 9.976562 2.117188 14.4375 3.125 C 18.382812 4.457031 20.589844 7.1875 21.0625 11.3125 Z M 21.0625 11.3125 "/>
<use xlink:href="#surface14" mask="url(#mask3)"/>
<path style=" stroke:none;fill-rule:evenodd;fill:rgb(12.941177%,12.941177%,12.54902%);fill-opacity:1;" d="M 14.9375 11.9375 C 14.550781 12.605469 14.175781 13.292969 13.8125 14 C 11.414062 15.042969 9.039062 16.148438 6.6875 17.3125 C 6.644531 17.269531 6.605469 17.230469 6.5625 17.1875 C 7.355469 15.433594 8.148438 13.683594 8.9375 11.9375 C 9.277344 11.238281 9.652344 10.550781 10.0625 9.875 C 12.421875 8.734375 14.796875 7.628906 17.1875 6.5625 C 17.230469 6.605469 17.269531 6.644531 17.3125 6.6875 C 16.449219 8.410156 15.660156 10.160156 14.9375 11.9375 Z M 14.9375 11.9375 "/>
<path style=" stroke:none;fill-rule:evenodd;fill:rgb(12.941177%,12.941177%,12.54902%);fill-opacity:1;" d="M 2.8125 11.3125 C 2.8125 11.519531 2.8125 11.730469 2.8125 11.9375 C 3.113281 16.84375 5.65625 19.863281 10.4375 21 C 13.832031 21.367188 16.6875 20.304688 19 17.8125 C 20.320312 16.078125 21.007812 14.121094 21.0625 11.9375 C 21.0625 11.730469 21.0625 11.519531 21.0625 11.3125 C 21.179688 11.488281 21.222656 11.699219 21.1875 11.9375 C 21.730469 11.9375 22.269531 11.9375 22.8125 11.9375 C 22.746094 13.070312 22.621094 14.195312 22.4375 15.3125 C 22.0625 16.355469 21.582031 17.355469 21 18.3125 C 17.554688 22.601562 13.199219 23.914062 7.9375 22.25 C 3.753906 20.417969 1.417969 17.230469 0.9375 12.6875 C 0.9375 12.4375 0.9375 12.1875 0.9375 11.9375 C 1.519531 11.9375 2.105469 11.9375 2.6875 11.9375 C 2.652344 11.699219 2.695312 11.488281 2.8125 11.3125 Z M 2.8125 11.3125 "/>
<path style=" stroke:none;fill-rule:evenodd;fill:rgb(53.333336%,74.901962%,28.235295%);fill-opacity:1;" d="M 2.8125 11.9375 C 4.855469 11.9375 6.894531 11.9375 8.9375 11.9375 C 8.148438 13.683594 7.355469 15.433594 6.5625 17.1875 C 6.605469 17.230469 6.644531 17.269531 6.6875 17.3125 C 9.039062 16.148438 11.414062 15.042969 13.8125 14 C 14.175781 13.292969 14.550781 12.605469 14.9375 11.9375 C 16.980469 11.9375 19.019531 11.9375 21.0625 11.9375 C 21.007812 14.121094 20.320312 16.078125 19 17.8125 C 16.6875 20.304688 13.832031 21.367188 10.4375 21 C 5.65625 19.863281 3.113281 16.84375 2.8125 11.9375 Z M 2.8125 11.9375 "/>
<path style=" stroke:none;fill-rule:evenodd;fill:rgb(50.196081%,70.588237%,27.058825%);fill-opacity:1;" d="M 11.4375 10.9375 C 12.890625 10.910156 13.265625 11.511719 12.5625 12.75 C 11.367188 13.140625 10.847656 12.703125 11 11.4375 C 11.171875 11.285156 11.316406 11.121094 11.4375 10.9375 Z M 11.4375 10.9375 "/>
</g>
</svg>
