<?xml version="1.0" encoding="UTF-8"?>
<svg xmlns="http://www.w3.org/2000/svg" xmlns:xlink="http://www.w3.org/1999/xlink" width="px" height="24px" viewBox="0 0 42 24" version="1.1">
<defs>
<filter id="alpha" filterUnits="objectBoundingBox" x="0%" y="0%" width="100%" height="100%">
  <feColorMatrix type="matrix" in="SourceGraphic" values="0 0 0 0 1 0 0 0 0 1 0 0 0 0 1 0 0 0 1 0"/>
</filter>
<mask id="mask0">
  <g filter="url(#alpha)">
<rect x="0" y="0" width="42" height="24" style="fill:rgb(0%,0%,0%);fill-opacity:0.854902;stroke:none;"/>
  </g>
</mask>
<clipPath id="clip1">
  <rect x="0" y="0" width="42" height="24"/>
</clipPath>
<g id="surface5" clip-path="url(#clip1)">
<path style=" stroke:none;fill-rule:evenodd;fill:rgb(59.607846%,0%,0%);fill-opacity:1;" d="M 4.644531 1.75 C 5.113281 1.75 5.578125 1.75 6.046875 1.75 C 6.046875 8.539062 6.046875 15.328125 6.046875 22.117188 C 5.578125 22.117188 5.113281 22.117188 4.644531 22.117188 C 4.644531 15.328125 4.644531 8.539062 4.644531 1.75 Z M 4.644531 1.75 "/>
</g>
<mask id="mask1">
  <g filter="url(#alpha)">
<rect x="0" y="0" width="42" height="24" style="fill:rgb(0%,0%,0%);fill-opacity:0.972549;stroke:none;"/>
  </g>
</mask>
<clipPath id="clip2">
  <rect x="0" y="0" width="42" height="24"/>
</clipPath>
<g id="surface8" clip-path="url(#clip2)">
<path style=" stroke:none;fill-rule:evenodd;fill:rgb(59.607846%,0%,0%);fill-opacity:1;" d="M 7.0625 1.75 C 8.292969 1.75 9.523438 1.75 10.753906 1.75 C 10.753906 8.539062 10.753906 15.328125 10.753906 22.117188 C 9.523438 22.117188 8.292969 22.117188 7.0625 22.117188 C 7.0625 15.328125 7.0625 8.539062 7.0625 1.75 Z M 7.0625 1.75 "/>
</g>
<mask id="mask2">
  <g filter="url(#alpha)">
<rect x="0" y="0" width="42" height="24" style="fill:rgb(0%,0%,0%);fill-opacity:0.972549;stroke:none;"/>
  </g>
</mask>
<clipPath id="clip3">
  <rect x="0" y="0" width="42" height="24"/>
</clipPath>
<g id="surface11" clip-path="url(#clip3)">
<path style=" stroke:none;fill-rule:evenodd;fill:rgb(60.000002%,0%,0%);fill-opacity:1;" d="M 11.898438 1.75 C 13.128906 1.75 14.359375 1.75 15.589844 1.75 C 15.589844 8.539062 15.589844 15.328125 15.589844 22.117188 C 14.359375 22.117188 13.128906 22.117188 11.898438 22.117188 C 11.898438 15.328125 11.898438 8.539062 11.898438 1.75 Z M 11.898438 1.75 "/>
</g>
<mask id="mask3">
  <g filter="url(#alpha)">
<rect x="0" y="0" width="42" height="24" style="fill:rgb(0%,0%,0%);fill-opacity:0.941176;stroke:none;"/>
  </g>
</mask>
<clipPath id="clip4">
  <rect x="0" y="0" width="42" height="24"/>
</clipPath>
<g id="surface14" clip-path="url(#clip4)">
<path style=" stroke:none;fill-rule:evenodd;fill:rgb(19.607843%,59.607846%,40.000001%);fill-opacity:1;" d="M 16.738281 1.75 C 17.160156 1.75 17.585938 1.75 18.007812 1.75 C 18.007812 8.539062 18.007812 15.328125 18.007812 22.117188 C 17.585938 22.117188 17.160156 22.117188 16.738281 22.117188 C 16.738281 15.328125 16.738281 8.539062 16.738281 1.75 Z M 16.738281 1.75 "/>
</g>
<mask id="mask4">
  <g filter="url(#alpha)">
<rect x="0" y="0" width="42" height="24" style="fill:rgb(0%,0%,0%);fill-opacity:0.92549;stroke:none;"/>
  </g>
</mask>
<clipPath id="clip5">
  <rect x="0" y="0" width="42" height="24"/>
</clipPath>
<g id="surface17" clip-path="url(#clip5)">
<path style=" stroke:none;fill-rule:evenodd;fill:rgb(19.607843%,60.000002%,39.607844%);fill-opacity:1;" d="M 19.027344 1.75 C 19.492188 1.75 19.960938 1.75 20.425781 1.75 C 20.425781 8.539062 20.425781 15.328125 20.425781 22.117188 C 19.960938 22.117188 19.492188 22.117188 19.027344 22.117188 C 19.027344 15.328125 19.027344 8.539062 19.027344 1.75 Z M 19.027344 1.75 "/>
</g>
<mask id="mask5">
  <g filter="url(#alpha)">
<rect x="0" y="0" width="42" height="24" style="fill:rgb(0%,0%,0%);fill-opacity:0.972549;stroke:none;"/>
  </g>
</mask>
<clipPath id="clip6">
  <rect x="0" y="0" width="42" height="24"/>
</clipPath>
<g id="surface20" clip-path="url(#clip6)">
<path style=" stroke:none;fill-rule:evenodd;fill:rgb(0%,39.607844%,60.000002%);fill-opacity:1;" d="M 21.445312 1.75 C 22.675781 1.75 23.90625 1.75 25.136719 1.75 C 25.136719 8.539062 25.136719 15.328125 25.136719 22.117188 C 23.90625 22.117188 22.675781 22.117188 21.445312 22.117188 C 21.445312 15.328125 21.445312 8.539062 21.445312 1.75 Z M 21.445312 1.75 "/>
</g>
<mask id="mask6">
  <g filter="url(#alpha)">
<rect x="0" y="0" width="42" height="24" style="fill:rgb(0%,0%,0%);fill-opacity:0.941176;stroke:none;"/>
  </g>
</mask>
<clipPath id="clip7">
  <rect x="0" y="0" width="42" height="24"/>
</clipPath>
<g id="surface23" clip-path="url(#clip7)">
<path style=" stroke:none;fill-rule:evenodd;fill:rgb(0%,39.607844%,60.000002%);fill-opacity:1;" d="M 26.28125 1.75 C 26.707031 1.75 27.128906 1.75 27.554688 1.75 C 27.554688 8.539062 27.554688 15.328125 27.554688 22.117188 C 27.128906 22.117188 26.707031 22.117188 26.28125 22.117188 C 26.28125 15.328125 26.28125 8.539062 26.28125 1.75 Z M 26.28125 1.75 "/>
</g>
<mask id="mask7">
  <g filter="url(#alpha)">
<rect x="0" y="0" width="42" height="24" style="fill:rgb(0%,0%,0%);fill-opacity:0.972549;stroke:none;"/>
  </g>
</mask>
<clipPath id="clip8">
  <rect x="0" y="0" width="42" height="24"/>
</clipPath>
<g id="surface26" clip-path="url(#clip8)">
<path style=" stroke:none;fill-rule:evenodd;fill:rgb(0%,39.607844%,60.000002%);fill-opacity:1;" d="M 28.699219 1.75 C 29.929688 1.75 31.160156 1.75 32.390625 1.75 C 32.390625 8.539062 32.390625 15.328125 32.390625 22.117188 C 31.160156 22.117188 29.929688 22.117188 28.699219 22.117188 C 28.699219 15.328125 28.699219 8.539062 28.699219 1.75 Z M 28.699219 1.75 "/>
</g>
<mask id="mask8">
  <g filter="url(#alpha)">
<rect x="0" y="0" width="42" height="24" style="fill:rgb(0%,0%,0%);fill-opacity:0.941176;stroke:none;"/>
  </g>
</mask>
<clipPath id="clip9">
  <rect x="0" y="0" width="42" height="24"/>
</clipPath>
<g id="surface29" clip-path="url(#clip9)">
<path style=" stroke:none;fill-rule:evenodd;fill:rgb(19.607843%,59.607846%,40.000001%);fill-opacity:1;" d="M 33.535156 1.75 C 33.960938 1.75 34.386719 1.75 34.808594 1.75 C 34.808594 8.539062 34.808594 15.328125 34.808594 22.117188 C 34.386719 22.117188 33.960938 22.117188 33.535156 22.117188 C 33.535156 15.328125 33.535156 8.539062 33.535156 1.75 Z M 33.535156 1.75 "/>
</g>
<mask id="mask9">
  <g filter="url(#alpha)">
<rect x="0" y="0" width="42" height="24" style="fill:rgb(0%,0%,0%);fill-opacity:0.92549;stroke:none;"/>
  </g>
</mask>
<clipPath id="clip10">
  <rect x="0" y="0" width="42" height="24"/>
</clipPath>
<g id="surface32" clip-path="url(#clip10)">
<path style=" stroke:none;fill-rule:evenodd;fill:rgb(19.607843%,60.000002%,39.607844%);fill-opacity:1;" d="M 35.828125 1.75 C 36.292969 1.75 36.761719 1.75 37.226562 1.75 C 37.226562 8.539062 37.226562 15.328125 37.226562 22.117188 C 36.761719 22.117188 36.292969 22.117188 35.828125 22.117188 C 35.828125 15.328125 35.828125 8.539062 35.828125 1.75 Z M 35.828125 1.75 "/>
</g>
</defs>
<g id="surface1">
<use xlink:href="#surface5" mask="url(#mask0)"/>
<use xlink:href="#surface8" mask="url(#mask1)"/>
<use xlink:href="#surface11" mask="url(#mask2)"/>
<use xlink:href="#surface14" mask="url(#mask3)"/>
<use xlink:href="#surface17" mask="url(#mask4)"/>
<use xlink:href="#surface20" mask="url(#mask5)"/>
<use xlink:href="#surface23" mask="url(#mask6)"/>
<use xlink:href="#surface26" mask="url(#mask7)"/>
<use xlink:href="#surface29" mask="url(#mask8)"/>
<use xlink:href="#surface32" mask="url(#mask9)"/>
</g>
</svg>
