<?xml version="1.0" encoding="UTF-8"?>
<svg xmlns="http://www.w3.org/2000/svg" xmlns:xlink="http://www.w3.org/1999/xlink" width="24px" height="24px" viewBox="0 0 24 24" version="1.1">
<defs>
<filter id="alpha" filterUnits="objectBoundingBox" x="0%" y="0%" width="100%" height="100%">
  <feColorMatrix type="matrix" in="SourceGraphic" values="0 0 0 0 1 0 0 0 0 1 0 0 0 0 1 0 0 0 1 0"/>
</filter>
<mask id="mask0">
  <g filter="url(#alpha)">
<rect x="0" y="0" width="24" height="24" style="fill:rgb(0%,0%,0%);fill-opacity:0.976471;stroke:none;"/>
  </g>
</mask>
<clipPath id="clip1">
  <rect x="0" y="0" width="24" height="24"/>
</clipPath>
<g id="surface5" clip-path="url(#clip1)">
<path style=" stroke:none;fill-rule:evenodd;fill:rgb(60.000002%,0%,0%);fill-opacity:1;" d="M 11.28125 0.625 C 13.023438 0.429688 14.347656 1.070312 15.265625 2.542969 C 16.09375 4.5 15.695312 6.148438 14.0625 7.488281 C 12.042969 8.53125 10.300781 8.195312 8.832031 6.480469 C 7.957031 4.933594 8.019531 3.429688 9.023438 1.96875 C 9.652344 1.289062 10.402344 0.839844 11.28125 0.625 Z M 11.28125 0.625 "/>
</g>
<mask id="mask1">
  <g filter="url(#alpha)">
<rect x="0" y="0" width="24" height="24" style="fill:rgb(0%,0%,0%);fill-opacity:0.968627;stroke:none;"/>
  </g>
</mask>
<clipPath id="clip2">
  <rect x="0" y="0" width="24" height="24"/>
</clipPath>
<g id="surface8" clip-path="url(#clip2)">
<path style=" stroke:none;fill-rule:evenodd;fill:rgb(0%,39.607844%,60.000002%);fill-opacity:1;" d="M 4.464844 3.792969 C 4.566406 3.777344 4.660156 3.792969 4.753906 3.839844 C 5.378906 4.449219 5.984375 5.074219 6.574219 5.710938 C 3.8125 8.414062 3.09375 11.582031 4.414062 15.214844 C 5.9375 18.351562 8.449219 20.015625 11.953125 20.207031 C 16.363281 19.84375 19.070312 17.507812 20.0625 13.199219 C 20.421875 10.234375 19.511719 7.742188 17.328125 5.710938 C 17.9375 5.019531 18.59375 4.382812 19.296875 3.792969 C 21.476562 5.722656 22.691406 8.15625 22.945312 11.089844 C 23.046875 16.820312 20.40625 20.644531 15.023438 22.558594 C 10.527344 23.652344 6.703125 22.515625 3.550781 19.152344 C 0.789062 15.617188 0.210938 11.742188 1.824219 7.535156 C 2.464844 6.113281 3.34375 4.867188 4.464844 3.792969 Z M 4.464844 3.792969 "/>
</g>
<mask id="mask2">
  <g filter="url(#alpha)">
<rect x="0" y="0" width="24" height="24" style="fill:rgb(0%,0%,0%);fill-opacity:0.984314;stroke:none;"/>
  </g>
</mask>
<clipPath id="clip3">
  <rect x="0" y="0" width="24" height="24"/>
</clipPath>
<g id="surface11" clip-path="url(#clip3)">
<path style=" stroke:none;fill-rule:evenodd;fill:rgb(19.607843%,60.000002%,40.000001%);fill-opacity:1;" d="M 7.535156 6.769531 C 8.742188 7.832031 9.910156 8.953125 11.039062 10.128906 C 11.089844 12.976562 11.105469 15.824219 11.089844 18.671875 C 7.421875 17.9375 5.4375 15.695312 5.136719 11.953125 C 5.214844 9.871094 6.015625 8.144531 7.535156 6.769531 Z M 7.535156 6.769531 "/>
</g>
<mask id="mask3">
  <g filter="url(#alpha)">
<rect x="0" y="0" width="24" height="24" style="fill:rgb(0%,0%,0%);fill-opacity:0.980392;stroke:none;"/>
  </g>
</mask>
<clipPath id="clip4">
  <rect x="0" y="0" width="24" height="24"/>
</clipPath>
<g id="surface14" clip-path="url(#clip4)">
<path style=" stroke:none;fill-rule:evenodd;fill:rgb(19.607843%,59.607846%,40.000001%);fill-opacity:1;" d="M 16.175781 6.769531 C 16.3125 6.789062 16.441406 6.835938 16.558594 6.910156 C 18.96875 9.492188 19.367188 12.355469 17.761719 15.503906 C 16.59375 17.296875 14.945312 18.351562 12.816406 18.671875 C 12.800781 15.824219 12.816406 12.976562 12.863281 10.128906 C 13.988281 9.019531 15.089844 7.902344 16.175781 6.769531 Z M 16.175781 6.769531 "/>
</g>
</defs>
<g id="surface1">
<use xlink:href="#surface5" mask="url(#mask0)"/>
<use xlink:href="#surface8" mask="url(#mask1)"/>
<use xlink:href="#surface11" mask="url(#mask2)"/>
<use xlink:href="#surface14" mask="url(#mask3)"/>
</g>
</svg>
