<?xml version="1.0" encoding="UTF-8"?>
<svg xmlns="http://www.w3.org/2000/svg" xmlns:xlink="http://www.w3.org/1999/xlink" width="px" height="24px" viewBox="0 0 24 24" version="1.1">
<defs>
<filter id="alpha" filterUnits="objectBoundingBox" x="0%" y="0%" width="100%" height="100%">
  <feColorMatrix type="matrix" in="SourceGraphic" values="0 0 0 0 1 0 0 0 0 1 0 0 0 0 1 0 0 0 1 0"/>
</filter>
<mask id="mask0">
  <g filter="url(#alpha)">
<rect x="0" y="0" width="24" height="24" style="fill:rgb(0%,0%,0%);fill-opacity:0.956863;stroke:none;"/>
  </g>
</mask>
<clipPath id="clip1">
  <rect x="0" y="0" width="24" height="24"/>
</clipPath>
<g id="surface5" clip-path="url(#clip1)">
<path style=" stroke:none;fill-rule:evenodd;fill:rgb(60.000002%,0%,0%);fill-opacity:1;" d="M 23.351562 0.351562 C 23.4375 0.335938 23.503906 0.371094 23.550781 0.449219 C 21.957031 3.664062 20.34375 6.867188 18.699219 10.050781 C 17.875 7.59375 16.226562 5.976562 13.75 5.199219 C 16.972656 3.605469 20.171875 1.988281 23.351562 0.351562 Z M 23.351562 0.351562 "/>
</g>
<mask id="mask1">
  <g filter="url(#alpha)">
<rect x="0" y="0" width="24" height="24" style="fill:rgb(0%,0%,0%);fill-opacity:0.960784;stroke:none;"/>
  </g>
</mask>
<clipPath id="clip2">
  <rect x="0" y="0" width="24" height="24"/>
</clipPath>
<g id="surface8" clip-path="url(#clip2)">
<path style=" stroke:none;fill-rule:evenodd;fill:rgb(0%,39.607844%,60.000002%);fill-opacity:1;" d="M 10.75 5.851562 C 10.917969 5.832031 11.085938 5.851562 11.25 5.898438 C 9.503906 7.800781 8.871094 10.019531 9.351562 12.550781 C 6.332031 10.589844 3.332031 8.609375 0.351562 6.601562 C 3.828125 6.332031 7.296875 6.082031 10.75 5.851562 Z M 10.75 5.851562 "/>
</g>
<mask id="mask2">
  <g filter="url(#alpha)">
<rect x="0" y="0" width="24" height="24" style="fill:rgb(0%,0%,0%);fill-opacity:0.964706;stroke:none;"/>
  </g>
</mask>
<clipPath id="clip3">
  <rect x="0" y="0" width="24" height="24"/>
</clipPath>
<g id="surface11" clip-path="url(#clip3)">
<path style=" stroke:none;fill-rule:evenodd;fill:rgb(20%,60.000002%,39.607844%);fill-opacity:1;" d="M 17.949219 12.648438 C 18.015625 12.726562 18.046875 12.828125 18.050781 12.949219 C 17.832031 16.488281 17.582031 20.023438 17.300781 23.550781 C 15.292969 20.566406 13.308594 17.566406 11.351562 14.550781 C 13.878906 15.035156 16.078125 14.402344 17.949219 12.648438 Z M 17.949219 12.648438 "/>
</g>
</defs>
<g id="surface1">
<use xlink:href="#surface5" mask="url(#mask0)"/>
<use xlink:href="#surface8" mask="url(#mask1)"/>
<use xlink:href="#surface11" mask="url(#mask2)"/>
</g>
</svg>
