<?xml version="1.0" encoding="UTF-8"?>
<svg version="1.1" xmlns="http://www.w3.org/2000/svg" width="140" height="140">
<path d="M0 0 C5.95125668 1.11586063 9.63528262 4.70235267 13 9.5625 C15.51063496 17.09440489 13.33513914 24.42036721 11.5 31.875 C11.02844839 33.82875302 10.55957325 35.78315453 10.09375 37.73828125 C9.88427734 38.59333252 9.67480469 39.44838379 9.45898438 40.3293457 C8.89933822 42.67229 8.89933822 42.67229 9 45.5625 C9.639375 45.954375 10.27875 46.34625 10.9375 46.75 C11.618125 47.348125 12.29875 47.94625 13 48.5625 C13.10634766 50.45355469 13.10634766 50.45355469 13.21484375 52.3828125 C13.6030983 56.14214968 13.84866663 56.42881543 16.9140625 59.13671875 C18.13561937 59.86756332 19.37370689 60.57132443 20.625 61.25 C21.9015991 62.00426567 23.17764698 62.7594651 24.453125 63.515625 C25.06607422 63.86689453 25.67902344 64.21816406 26.31054688 64.58007812 C29.38600574 66.36846634 32.2047306 68.3662169 35 70.5625 C35 71.2225 35 71.8825 35 72.5625 C35.66 72.5625 36.32 72.5625 37 72.5625 C40.36238951 77.60608427 42.1974202 81.455657 41 87.5625 C39.74023175 90.84046841 38.26991249 93.73195455 35.25 95.70703125 C32.41816126 96.78371994 29.76041596 97.05041724 26.75 97.375 C21.42402938 98.11455247 18.04664625 99.36995328 13.69921875 102.44140625 C11.11973937 104.14326966 9.06915425 104.5625 6 104.5625 C0.82092808 102.80161555 -1.38813345 100.30255411 -4 95.5625 C-6.87360405 86.02822433 -3.94810397 76.01312344 -2 66.5625 C-2.61875 67.59697266 -2.61875 67.59697266 -3.25 68.65234375 C-14.50951311 86.97418539 -14.50951311 86.97418539 -24 89.5625 C-28.48991124 89.94956131 -32.06133482 89.86005469 -36 87.5625 C-39.69022726 82.53037192 -40.15305271 77.08374889 -41.15625 71.05859375 C-41.74074169 67.62252385 -41.74074169 67.62252385 -43.5546875 65.49609375 C-46.19235147 61.96732709 -45.63974038 57.95920244 -45.55859375 53.7109375 C-44.94381426 50.24581673 -44.30905182 49.08488107 -41.6875 46.8125 C-35.63519772 42.59999611 -29.10763352 43.10639518 -22 43.5625 C-17.60301839 44.35111401 -13.30624488 45.37845886 -9 46.5625 C-10.08539063 45.94503906 -11.17078125 45.32757813 -12.2890625 44.69140625 C-21.33626416 39.3932487 -28.53408377 34.96024868 -32 24.5625 C-32.59945404 19.50995882 -32.8815042 15.80697652 -29.875 11.5625 C-26.01107214 8.87455018 -22.8264426 7.80870547 -18.16015625 7.1796875 C-11.31169429 6.44541182 -11.31169429 6.44541182 -5.625 2.9375 C-3 0.5625 -3 0.5625 0 0 Z " fill="#ED6027" transform="translate(61,17.4375)"/>
<path d="M0 0 C3.60876252 3.93683184 4.28916758 8.06334065 4.9375 13.25 C5.68057931 18.11271104 6.71166908 20.57489512 10.0625 24.25 C11.44217 28.48098801 11.19478579 31.48037357 9.1875 35.50390625 C6.57165351 39.56391799 3.69576077 42.63728746 -1.13671875 43.76171875 C-10.3038343 44.17905996 -23.6448153 42.39634235 -31.9375 38.25 C-31.855 37.3425 -31.7725 36.435 -31.6875 35.5 C-31.6271477 32.18064639 -31.6271477 32.18064639 -33.8125 30 C-34.864375 29.13375 -34.864375 29.13375 -35.9375 28.25 C-36.5975 27.59 -37.2575 26.93 -37.9375 26.25 C-26.27076542 2.48442957 -26.27076542 2.48442957 -14.23828125 -2.19140625 C-8.95517955 -3.47406082 -4.63492779 -2.76123358 0 0 Z " fill="#224084" transform="translate(113.9375,31.75)"/>
<path d="M0 0 C1.32 0 2.64 0 4 0 C3.85899143 2.27113803 3.71203245 4.54190725 3.5625 6.8125 C3.48128906 8.07707031 3.40007813 9.34164062 3.31640625 10.64453125 C3 14 3 14 2 17 C1.7912291 20.0026168 1.89886339 22.99348455 2 26 C2.02835938 26.90492187 2.05671875 27.80984375 2.0859375 28.7421875 C2.14007813 29.63164063 2.19421875 30.52109375 2.25 31.4375 C2.29640625 32.26121094 2.3428125 33.08492187 2.390625 33.93359375 C2.80826253 36.14168885 2.80826253 36.14168885 4.78125 37.24609375 C8.18137196 38.40141688 11.42962964 38.64296296 15 39 C15 38.34 15 37.68 15 37 C15.99 37 16.98 37 18 37 C18 36.34 18 35.68 18 35 C23.48675196 33.13216954 28.22192976 32.7641604 34 33 C34 32.34 34 31.68 34 31 C35.65 31 37.3 31 39 31 C41.15822383 24.52532852 42.29709538 19.02655589 39.5 12.5 C39.005 11.675 38.51 10.85 38 10 C38.66 10 39.32 10 40 10 C43.36238951 15.04358427 45.1974202 18.893157 44 25 C42.74023175 28.27796841 41.26991249 31.16945455 38.25 33.14453125 C35.41816126 34.22121994 32.76041596 34.48791724 29.75 34.8125 C24.42402938 35.55205247 21.04664625 36.80745328 16.69921875 39.87890625 C14.11973937 41.58076966 12.06915425 42 9 42 C3.82092808 40.23911555 1.61186655 37.74005411 -1 33 C-3.87360405 23.46572433 -0.94810397 13.45062344 1 4 C0.5875 4.68964844 0.175 5.37929687 -0.25 6.08984375 C-11.50951311 24.41168539 -11.50951311 24.41168539 -21 27 C-25.46348506 27.37195709 -27.24171538 27.50552308 -31 25 C-30.04738281 24.91363281 -29.09476563 24.82726562 -28.11328125 24.73828125 C-26.85902344 24.59777344 -25.60476562 24.45726563 -24.3125 24.3125 C-23.07113281 24.18488281 -21.82976563 24.05726562 -20.55078125 23.92578125 C-12.33455117 21.78359585 -8.57319402 12.9552842 -4.37304688 6.15429688 C-3.86708984 5.36474609 -3.36113281 4.57519531 -2.83984375 3.76171875 C-2.16489868 2.678302 -2.16489868 2.678302 -1.47631836 1.57299805 C-0.9891333 1.05390869 -0.50194824 0.53481934 0 0 Z " fill="#D77246" transform="translate(58,80)"/>
<path d="M0 0 C3.75376152 1.25125384 4.24073289 2.5652404 6 6 C6 6.66 6 7.32 6 8 C7.11375 8.12375 8.2275 8.2475 9.375 8.375 C13 9 13 9 15 11 C15.4140625 13.1640625 15.4140625 13.1640625 15.625 15.625 C15.69976562 16.44226563 15.77453125 17.25953125 15.8515625 18.1015625 C15.92503906 19.04128906 15.92503906 19.04128906 16 20 C14.35 20 12.7 20 11 20 C11.33 21.98 11.66 23.96 12 26 C9 26 9 26 6.8125 24.125 C5 22 5 22 5 20 C1.37 20 -2.26 20 -6 20 C-6 19.34 -6 18.68 -6 18 C-4.515 17.1028125 -4.515 17.1028125 -3 16.1875 C-1.2294225 14.95620971 -1.2294225 14.95620971 0 13 C0.54148172 8.6256771 0.34677633 4.38607834 0 0 Z " fill="#D75029" transform="translate(59,55)"/>
<path d="M0 0 C4.73653908 0.88810108 7.81537704 3.14095245 10.875 6.8125 C11.24625 7.39 11.6175 7.9675 12 8.5625 C9.53199953 7.41076645 7.95216435 6.51466435 6 4.5625 C2.0044691 3.65339203 2.0044691 3.65339203 -2 3.5625 C-4.35522225 5.3337618 -4.35522225 5.3337618 -6 7.5625 C-8.96556567 8.55102189 -11.27285604 8.75902048 -14.375 8.9375 C-20.18701657 9.44289275 -23.07286964 10.73953885 -27.3125 14.75 C-29.54264832 18.46691387 -29.98650388 21.40917569 -29 25.5625 C-27.26151546 29.08468978 -25.22585567 32.32970962 -23 35.5625 C-23.99 35.5625 -24.98 35.5625 -26 35.5625 C-27.3515625 33.91796875 -27.3515625 33.91796875 -28.625 31.75 C-29.26308594 30.68845703 -29.26308594 30.68845703 -29.9140625 29.60546875 C-32.48107193 24.77616684 -32.75236705 19.91456558 -32 14.5625 C-28.96773704 10.28165818 -26.0289967 8.75117195 -21 7.5625 C-20.06285156 7.43617187 -19.12570313 7.30984375 -18.16015625 7.1796875 C-11.31169429 6.44541182 -11.31169429 6.44541182 -5.625 2.9375 C-3 0.5625 -3 0.5625 0 0 Z " fill="#CF7451" transform="translate(61,17.4375)"/>
<path d="M0 0 C0.66 0 1.32 0 2 0 C2.14695312 1.21236328 2.14695312 1.21236328 2.296875 2.44921875 C3.14769417 8.52964192 3.77333288 12.36430057 8 17 C9.37967 21.23098801 9.13228579 24.23037357 7.125 28.25390625 C4.935764 31.65178295 2.63891744 34.16420861 -1 36 C-4.73848614 36.58268818 -8.26693083 36.64384609 -12 36 C-12.66 35.34 -13.32 34.68 -14 34 C-13.19175781 33.97421875 -12.38351563 33.9484375 -11.55078125 33.921875 C-4.93708187 33.6322386 -4.93708187 33.6322386 1.125 31.25 C3.81109887 28.02668135 4.82990195 25.46284324 5.3125 21.3125 C5.209375 20.549375 5.10625 19.78625 5 19 C4.01 18.34 3.02 17.68 2 17 C-0.11567168 11.54677139 -0.2097564 5.76830091 0 0 Z " fill="#3A4E79" transform="translate(116,39)"/>
<path d="M0 0 C1.68222656 -0.00386719 1.68222656 -0.00386719 3.3984375 -0.0078125 C6.26764622 0.11029052 8.83708229 0.46717672 11.625 1.125 C11.625 1.455 11.625 1.785 11.625 2.125 C10.31144531 2.16238281 8.99789062 2.19976562 7.64453125 2.23828125 C5.90882636 2.30395657 4.17315053 2.37040337 2.4375 2.4375 C1.57318359 2.46005859 0.70886719 2.48261719 -0.18164062 2.50585938 C-4.99936589 2.70890527 -8.49861814 2.95615191 -12.375 6.125 C-14.39850324 9.16025486 -14.69624018 10.31926202 -15 13.8125 C-15.07476563 14.62074219 -15.14953125 15.42898437 -15.2265625 16.26171875 C-15.27554687 16.87660156 -15.32453125 17.49148437 -15.375 18.125 C-14.715 18.125 -14.055 18.125 -13.375 18.125 C-10.46324429 23.36616028 -8.82913181 27.88896717 -7.8125 33.7890625 C-7.27279072 36.67072454 -6.34213287 39.36176324 -5.375 42.125 C-5.375 42.785 -5.375 43.445 -5.375 44.125 C-6.035 44.125 -6.695 44.125 -7.375 44.125 C-11.12125122 39.16503984 -11.53506328 33.60414376 -12.53125 27.62109375 C-13.11574169 24.18502385 -13.11574169 24.18502385 -14.9296875 22.05859375 C-17.56735147 18.52982709 -17.01474038 14.52170244 -16.93359375 10.2734375 C-16.31881426 6.80831673 -15.68405182 5.64738107 -13.0625 3.375 C-8.7790408 0.39364056 -5.15502976 -0.01179641 0 0 Z " fill="#D0754E" transform="translate(32.375,60.875)"/>
<path d="M0 0 C0.66 0.33 1.32 0.66 2 1 C1.21625 1.9075 0.4325 2.815 -0.375 3.75 C-2.31562811 6.07221229 -3.71719367 8.25112929 -5 11 C-6.5 13.25 -6.5 13.25 -8 15 C-8.66 15 -9.32 15 -10 15 C-9.67 15.99 -9.34 16.98 -9 18 C-9.95495674 19.69287785 -10.9590934 21.35857037 -12 23 C-12.69579454 25.19130534 -12.69579454 25.19130534 -13 27 C-14.32 26.34 -15.64 25.68 -17 25 C-7.80851064 6.27659574 -7.80851064 6.27659574 0 0 Z " fill="#425681" transform="translate(93,33)"/>
<path d="M0 0 C0.66 0 1.32 0 2 0 C2.09796875 0.80824219 2.1959375 1.61648437 2.296875 2.44921875 C3.14769417 8.52964192 3.77333288 12.36430057 8 17 C8.75 20.3125 8.75 20.3125 9 23 C8.01 23.33 7.02 23.66 6 24 C5.896875 23.21625 5.79375 22.4325 5.6875 21.625 C5.22404978 18.66954819 5.22404978 18.66954819 2 17 C-0.11567168 11.54677139 -0.2097564 5.76830091 0 0 Z " fill="#415583" transform="translate(116,39)"/>
<path d="M0 0 C1.32 0 2.64 0 4 0 C4.99 3.3 5.98 6.6 7 10 C9.31 10 11.62 10 14 10 C12 12 12 12 10.125 12.01171875 C9.42375 11.90472656 8.7225 11.79773438 8 11.6875 C7.29875 11.58824219 6.5975 11.48898438 5.875 11.38671875 C4 11 4 11 2 10 C2.04125 9.0925 2.0825 8.185 2.125 7.25 C2.00468444 4.1217954 1.6085292 2.61385994 0 0 Z " fill="#405382" transform="translate(80,60)"/>
<path d="M0 0 C0.66 0 1.32 0 2 0 C4.93925113 4.40887669 6.65741802 7.64174899 6.40625 13 C5.69498624 16.50160621 3.9701299 19.04480515 2 22 C1.34 21.67 0.68 21.34 0 21 C0.495 20.01 0.99 19.02 1.5 18 C3.30389839 13.74795379 3.43878445 10.60723675 3 6 C1.6351132 2.59758176 1.6351132 2.59758176 0 0 Z " fill="#D17850" transform="translate(96,90)"/>
<path d="M0 0 C3.46121174 2.16325734 4.70741598 3.12224793 6 7 C4.0625 6.6875 4.0625 6.6875 2 6 C1.67 5.01 1.34 4.02 1 3 C-4.33646866 1.22117711 -8.95258476 1.55276837 -14 4 C-14.66 3.34 -15.32 2.68 -16 2 C-10.41931047 -0.96845188 -6.17243936 -1.72227241 0 0 Z " fill="#43567F" transform="translate(111,30)"/>
<path d="M0 0 C4.74878527 0.96913985 7.85340284 3.17408341 10.9375 6.875 C11.30875 7.4525 11.68 8.03 12.0625 8.625 C9.59449953 7.47326645 8.01466435 6.57716435 6.0625 4.625 C2.06650513 3.7130681 2.06650513 3.7130681 -1.9375 3.625 C-4.46340848 5.39654652 -4.46340848 5.39654652 -5.9375 7.625 C-6.5975 7.295 -7.2575 6.965 -7.9375 6.625 C-3.82058977 0.81289144 -3.82058977 0.81289144 0 0 Z " fill="#D46E43" transform="translate(60.9375,17.375)"/>
<path d="M0 0 C5.08938811 1.59043379 8.87456643 4.7446951 13 8 C10 9 10 9 7.7734375 7.890625 C6.98195313 7.34921875 6.19046875 6.8078125 5.375 6.25 C4.57835938 5.71890625 3.78171875 5.1878125 2.9609375 4.640625 C1 3 1 3 0 0 Z " fill="#D6744B" transform="translate(83,80)"/>
<path d="M0 0 C2.68234235 2.42457972 4.36856725 5.07510397 6.1875 8.1875 C6.71730469 9.08855469 7.24710938 9.98960938 7.79296875 10.91796875 C8.19128906 11.60503906 8.58960938 12.29210938 9 13 C8.01 13 7.02 13 6 13 C2.80390169 9.27737682 0.46148436 4.92249987 0 0 Z " fill="#D27651" transform="translate(29,40)"/>
<path d="M0 0 C3.12270126 2.51830747 3.94523098 3.7261549 4.75 7.75 C4.8325 8.8225 4.915 9.895 5 11 C4.34 11 3.68 11 3 11 C0.15549386 7.28026121 -0.3227506 4.62609198 0 0 Z " fill="#D56E3F" transform="translate(22,94)"/>
<path d="M0 0 C0.66 0 1.32 0 2 0 C3.28317892 3.84953676 3.06643637 6.94738135 3 11 C2.34 11 1.68 11 1 11 C0.67 7.37 0.34 3.74 0 0 Z " fill="#D3794E" transform="translate(72,27)"/>
<path d="M0 0 C3 1 3 1 5 4 C5.07905064 6.33199388 5.08798769 8.66832622 5 11 C4.34 11 3.68 11 3 11 C2.86722656 10.37351562 2.73445313 9.74703125 2.59765625 9.1015625 C2.42105469 8.28429687 2.24445312 7.46703125 2.0625 6.625 C1.80146484 5.40683594 1.80146484 5.40683594 1.53515625 4.1640625 C1.07669307 1.970537 1.07669307 1.970537 0 0 Z " fill="#D67A50" transform="translate(18,83)"/>
<path d="M0 0 C1.32 0 2.64 0 4 0 C4 0.66 4 1.32 4 2 C1.35541621 3.32229189 -0.67761301 3.09677194 -3.625 3.0625 C-4.62789063 3.05347656 -5.63078125 3.04445313 -6.6640625 3.03515625 C-7.43492188 3.02355469 -8.20578125 3.01195313 -9 3 C-9 2.67 -9 2.34 -9 2 C-6.03 2 -3.06 2 0 2 C0 1.34 0 0.68 0 0 Z " fill="#D66B40" transform="translate(92,111)"/>
<path d="M0 0 C0.33 0 0.66 0 1 0 C1 2.31 1 4.62 1 7 C1.66 7 2.32 7 3 7 C3.33 8.32 3.66 9.64 4 11 C2.68 10.34 1.36 9.68 0 9 C0 6.03 0 3.06 0 0 Z " fill="#D26C3C" transform="translate(16,72)"/>
</svg>
