<?xml version="1.0" encoding="UTF-8"?>
<!DOCTYPE svg PUBLIC "-//W3C//DTD SVG 1.1//EN" "http://www.w3.org/Graphics/SVG/1.1/DTD/svg11.dtd">
<svg xmlns="http://www.w3.org/2000/svg" version="1.1" width="157px" height="157px" style="shape-rendering:geometricPrecision; text-rendering:geometricPrecision; image-rendering:optimizeQuality; fill-rule:evenodd; clip-rule:evenodd" xmlns:xlink="http://www.w3.org/1999/xlink">
<g><path style="opacity:0.329" fill="#f8d8cf" d="M 82.5,11.5 C 81.017,9.9062 79.517,8.23953 78,6.5C 75.1467,10.2355 72.3133,13.9021 69.5,17.5C 71.3171,12.5404 74.1505,8.20707 78,4.5C 80.5193,6.21147 82.0193,8.5448 82.5,11.5 Z"/></g>
<g><path style="opacity:1" fill="#dc522b" d="M 82.5,11.5 C 82.427,13.0269 83.0937,14.0269 84.5,14.5C 84.5923,16.8477 85.5923,18.5144 87.5,19.5C 87.5,19.8333 87.5,20.1667 87.5,20.5C 87.8254,25.5988 87.3254,30.5988 86,35.5C 81.6416,41.5565 77.8082,47.8898 74.5,54.5C 74.6716,55.4916 74.3382,56.1583 73.5,56.5C 71.1782,57.8021 69.8449,59.8021 69.5,62.5C 67.7497,63.6594 66.7497,65.326 66.5,67.5C 65.0937,67.9731 64.427,68.9731 64.5,70.5C 62.7497,71.6594 61.7497,73.326 61.5,75.5C 59.0499,77.6291 57.3833,80.2957 56.5,83.5C 49.7421,91.7861 43.9088,100.786 39,110.5C 37.6394,113.118 35.8061,113.785 33.5,112.5C 31.3599,108.22 29.1932,103.886 27,99.5C 26.3333,96.1667 26.3333,92.8333 27,89.5C 28.7068,87.0912 29.5402,84.4245 29.5,81.5C 32.7769,78.3327 35.6103,74.666 38,70.5C 42.7562,62.5938 47.2562,54.5938 51.5,46.5C 52.9063,46.0269 53.573,45.0269 53.5,43.5C 55.6689,41.6597 57.0023,39.3263 57.5,36.5C 60.0442,35.2921 61.3775,33.2921 61.5,30.5C 62.9063,30.0269 63.573,29.0269 63.5,27.5C 66.5208,24.7939 68.5208,21.4605 69.5,17.5C 72.3133,13.9021 75.1467,10.2355 78,6.5C 79.517,8.23953 81.017,9.9062 82.5,11.5 Z"/></g>
<g><path style="opacity:0.133" fill="#f9e4dd" d="M 82.5,11.5 C 83.9063,11.9731 84.573,12.9731 84.5,14.5C 83.0937,14.0269 82.427,13.0269 82.5,11.5 Z"/></g>
<g><path style="opacity:0.125" fill="#f9dbd4" d="M 84.5,14.5 C 86.2503,15.6594 87.2503,17.326 87.5,19.5C 85.5923,18.5144 84.5923,16.8477 84.5,14.5 Z"/></g>
<g><path style="opacity:0.369" fill="#f6ccc0" d="M 69.5,17.5 C 68.5208,21.4605 66.5208,24.7939 63.5,27.5C 65.0002,23.827 67.0002,20.4937 69.5,17.5 Z"/></g>
<g><path style="opacity:0.247" fill="#f9d8d0" d="M 63.5,27.5 C 63.573,29.0269 62.9063,30.0269 61.5,30.5C 61.427,28.9731 62.0937,27.9731 63.5,27.5 Z"/></g>
<g><path style="opacity:0.51" fill="#f6c8bb" d="M 61.5,30.5 C 61.3775,33.2921 60.0442,35.2921 57.5,36.5C 58.4486,34.2228 59.7819,32.2228 61.5,30.5 Z"/></g>
<g><path style="opacity:0.361" fill="#f7d0c5" d="M 57.5,36.5 C 57.0023,39.3263 55.6689,41.6597 53.5,43.5C 54.0787,40.6689 55.412,38.3356 57.5,36.5 Z"/></g>
<g><path style="opacity:0.094" fill="#f9d6cd" d="M 87.5,20.5 C 89.9428,24.9404 90.1095,29.6071 88,34.5C 83.7245,41.4051 79.2245,48.0718 74.5,54.5C 77.8082,47.8898 81.6416,41.5565 86,35.5C 87.3254,30.5988 87.8254,25.5988 87.5,20.5 Z"/></g>
<g><path style="opacity:1" fill="#dc532b" d="M 102.5,43.5 C 102.427,45.0269 103.094,46.0269 104.5,46.5C 104.427,48.0269 105.094,49.0269 106.5,49.5C 106.954,52.8651 107.62,56.1985 108.5,59.5C 107.828,62.5123 107.161,65.5123 106.5,68.5C 99.655,76.695 93.9883,85.695 89.5,95.5C 85.1688,100.152 81.8355,105.486 79.5,111.5C 77.7497,112.659 76.7497,114.326 76.5,116.5C 72.1688,121.152 68.8355,126.486 66.5,132.5C 64.0499,134.629 62.3833,137.296 61.5,140.5C 60.0937,140.973 59.427,141.973 59.5,143.5C 57.7497,144.659 56.7497,146.326 56.5,148.5C 55.609,149.11 54.609,149.443 53.5,149.5C 50.0268,144.22 47.3602,138.553 45.5,132.5C 45.5,129.167 45.5,125.833 45.5,122.5C 45.2627,121.209 45.596,120.209 46.5,119.5C 47.9063,119.027 48.573,118.027 48.5,116.5C 50.9501,114.371 52.6167,111.704 53.5,108.5C 55.9501,106.371 57.6167,103.704 58.5,100.5C 59.9063,100.027 60.573,99.0269 60.5,97.5C 60.3284,96.5084 60.6618,95.8417 61.5,95.5C 62.9063,95.0269 63.573,94.0269 63.5,92.5C 64.9063,92.0269 65.573,91.0269 65.5,89.5C 67.3264,87.8525 68.6597,85.8525 69.5,83.5C 71.588,81.6644 72.9213,79.3311 73.5,76.5C 74.9063,76.0269 75.573,75.0269 75.5,73.5C 77.2503,72.3406 78.2503,70.674 78.5,68.5C 81.9518,64.7009 84.6185,60.3675 86.5,55.5C 87.9063,55.0269 88.573,54.0269 88.5,52.5C 90.9501,50.3709 92.6167,47.7043 93.5,44.5C 94.9063,44.0269 95.573,43.0269 95.5,41.5C 96.4822,40.8592 97.4822,40.1925 98.5,39.5C 99.84,40.8665 101.173,42.1999 102.5,43.5 Z"/></g>
<g><path style="opacity:0.118" fill="#fadcd4" d="M 102.5,43.5 C 101.173,42.1999 99.84,40.8665 98.5,39.5C 97.4822,40.1925 96.4822,40.8592 95.5,41.5C 96.2115,37.344 98.0449,36.6774 101,39.5C 101.791,40.745 102.291,42.0783 102.5,43.5 Z"/></g>
<g><path style="opacity:0.467" fill="#f6cabd" d="M 95.5,41.5 C 95.573,43.0269 94.9063,44.0269 93.5,44.5C 93.427,42.9731 94.0937,41.9731 95.5,41.5 Z"/></g>
<g><path style="opacity:0.294" fill="#f8d2c6" d="M 53.5,43.5 C 53.573,45.0269 52.9063,46.0269 51.5,46.5C 51.427,44.9731 52.0937,43.9731 53.5,43.5 Z"/></g>
<g><path style="opacity:0.224" fill="#f8dcd4" d="M 102.5,43.5 C 103.906,43.9731 104.573,44.9731 104.5,46.5C 103.094,46.0269 102.427,45.0269 102.5,43.5 Z"/></g>
<g><path style="opacity:0.235" fill="#f8d5cc" d="M 93.5,44.5 C 92.6167,47.7043 90.9501,50.3709 88.5,52.5C 89.3833,49.2957 91.0499,46.6291 93.5,44.5 Z"/></g>
<g><path style="opacity:0.165" fill="#fae5de" d="M 104.5,46.5 C 105.906,46.9731 106.573,47.9731 106.5,49.5C 105.094,49.0269 104.427,48.0269 104.5,46.5 Z"/></g>
<g><path style="opacity:0.286" fill="#f7d4c8" d="M 88.5,52.5 C 88.573,54.0269 87.9063,55.0269 86.5,55.5C 86.427,53.9731 87.0937,52.9731 88.5,52.5 Z"/></g>
<g><path style="opacity:0.125" fill="#f8d7cf" d="M 73.5,56.5 C 72.6597,58.8525 71.3264,60.8525 69.5,62.5C 69.8449,59.8021 71.1782,57.8021 73.5,56.5 Z"/></g>
<g><path style="opacity:0.078" fill="#fbe0d9" d="M 106.5,49.5 C 110.421,55.8502 110.421,62.1836 106.5,68.5C 107.161,65.5123 107.828,62.5123 108.5,59.5C 107.62,56.1985 106.954,52.8651 106.5,49.5 Z"/></g>
<g><path style="opacity:0.239" fill="#f8d5cb" d="M 69.5,62.5 C 69.2503,64.674 68.2503,66.3406 66.5,67.5C 66.7497,65.326 67.7497,63.6594 69.5,62.5 Z"/></g>
<g><path style="opacity:0.388" fill="#f7cec3" d="M 86.5,55.5 C 84.6185,60.3675 81.9518,64.7009 78.5,68.5C 80.4176,63.6566 83.0843,59.3233 86.5,55.5 Z"/></g>
<g><path style="opacity:0.141" fill="#f8dad5" d="M 66.5,67.5 C 66.573,69.0269 65.9063,70.0269 64.5,70.5C 64.427,68.9731 65.0937,67.9731 66.5,67.5 Z"/></g>
<g><path style="opacity:0.169" fill="#f7d2c8" d="M 78.5,68.5 C 78.2503,70.674 77.2503,72.3406 75.5,73.5C 75.7497,71.326 76.7497,69.6594 78.5,68.5 Z"/></g>
<g><path style="opacity:0.404" fill="#f9d9d0" d="M 122.5,75.5 C 121.173,74.1999 119.84,72.8665 118.5,71.5C 117.16,72.8665 115.827,74.1999 114.5,75.5C 116.933,67.8869 119.6,67.8869 122.5,75.5 Z"/></g>
<g><path style="opacity:0.408" fill="#f6cabd" d="M 51.5,46.5 C 47.2562,54.5938 42.7562,62.5938 38,70.5C 35.6103,74.666 32.7769,78.3327 29.5,81.5C 36.0861,69.3197 43.4195,57.653 51.5,46.5 Z"/></g>
<g><path style="opacity:0.188" fill="#f9d7cd" d="M 64.5,70.5 C 64.2503,72.674 63.2503,74.3406 61.5,75.5C 61.7497,73.326 62.7497,71.6594 64.5,70.5 Z"/></g>
<g><path style="opacity:1" fill="#dc532c" d="M 122.5,75.5 C 122.427,77.0269 123.094,78.0269 124.5,78.5C 125.38,81.2622 126.546,83.9289 128,86.5C 128.667,89.8333 128.667,93.1667 128,96.5C 118.645,112.665 109.145,128.665 99.5,144.5C 97.7497,145.659 96.7497,147.326 96.5,149.5C 95.5,149.5 94.5,149.5 93.5,149.5C 92.4528,145.739 90.6195,142.406 88,139.5C 85.6896,134.734 85.0229,129.734 86,124.5C 87.5879,120.328 89.4212,116.328 91.5,112.5C 92.9063,112.027 93.573,111.027 93.5,109.5C 93.3284,108.508 93.6618,107.842 94.5,107.5C 96.8218,106.198 98.1551,104.198 98.5,101.5C 100.25,100.341 101.25,98.674 101.5,96.5C 104.164,94.5156 105.831,91.8489 106.5,88.5C 108.727,87.5994 109.727,85.9328 109.5,83.5C 110.906,83.0269 111.573,82.0269 111.5,80.5C 112.906,80.0269 113.573,79.0269 113.5,77.5C 113.328,76.5084 113.662,75.8417 114.5,75.5C 115.827,74.1999 117.16,72.8665 118.5,71.5C 119.84,72.8665 121.173,74.1999 122.5,75.5 Z"/></g>
<g><path style="opacity:0.333" fill="#f6cbbf" d="M 75.5,73.5 C 75.573,75.0269 74.9063,76.0269 73.5,76.5C 73.427,74.9731 74.0937,73.9731 75.5,73.5 Z"/></g>
<g><path style="opacity:0.165" fill="#f9dad3" d="M 61.5,75.5 C 60.6167,78.7043 58.9501,81.3709 56.5,83.5C 57.3833,80.2957 59.0499,77.6291 61.5,75.5 Z"/></g>
<g><path style="opacity:0.196" fill="#faded8" d="M 122.5,75.5 C 123.906,75.9731 124.573,76.9731 124.5,78.5C 123.094,78.0269 122.427,77.0269 122.5,75.5 Z"/></g>
<g><path style="opacity:0.251" fill="#f8d2c7" d="M 73.5,76.5 C 72.9213,79.3311 71.588,81.6644 69.5,83.5C 69.9977,80.6737 71.3311,78.3403 73.5,76.5 Z"/></g>
<g><path style="opacity:0.337" fill="#f6c9bc" d="M 113.5,77.5 C 113.573,79.0269 112.906,80.0269 111.5,80.5C 111.427,78.9731 112.094,77.9731 113.5,77.5 Z"/></g>
<g><path style="opacity:0.243" fill="#f8dbd1" d="M 111.5,80.5 C 111.573,82.0269 110.906,83.0269 109.5,83.5C 109.427,81.9731 110.094,80.9731 111.5,80.5 Z"/></g>
<g><path style="opacity:0.412" fill="#f5cabe" d="M 109.5,83.5 C 109.727,85.9328 108.727,87.5994 106.5,88.5C 107.11,86.5659 108.11,84.8993 109.5,83.5 Z"/></g>
<g><path style="opacity:0.255" fill="#f9d4cb" d="M 106.5,68.5 C 101.221,77.7717 95.5544,86.7717 89.5,95.5C 93.9883,85.695 99.655,76.695 106.5,68.5 Z"/></g>
<g><path style="opacity:0.396" fill="#f5c4b6" d="M 69.5,83.5 C 68.6597,85.8525 67.3264,87.8525 65.5,89.5C 65.8449,86.8021 67.1782,84.8021 69.5,83.5 Z"/></g>
<g><path style="opacity:0.231" fill="#f6cfc4" d="M 106.5,88.5 C 105.831,91.8489 104.164,94.5156 101.5,96.5C 102.669,93.4887 104.336,90.822 106.5,88.5 Z"/></g>
<g><path style="opacity:0.329" fill="#f6ccc3" d="M 65.5,89.5 C 65.573,91.0269 64.9063,92.0269 63.5,92.5C 63.427,90.9731 64.0937,89.9731 65.5,89.5 Z"/></g>
<g><path style="opacity:0.298" fill="#f7d0c5" d="M 63.5,92.5 C 63.573,94.0269 62.9063,95.0269 61.5,95.5C 61.427,93.9731 62.0937,92.9731 63.5,92.5 Z"/></g>
<g><path style="opacity:0.412" fill="#f6d0c5" d="M 60.5,97.5 C 60.573,99.0269 59.9063,100.027 58.5,100.5C 58.427,98.9731 59.0937,97.9731 60.5,97.5 Z"/></g>
<g><path style="opacity:0.212" fill="#f8d2c8" d="M 101.5,96.5 C 101.25,98.674 100.25,100.341 98.5,101.5C 98.7497,99.326 99.7497,97.6594 101.5,96.5 Z"/></g>
<g><path style="opacity:0.133" fill="#f8cfc4" d="M 56.5,83.5 C 50.8555,92.6687 45.3555,102.002 40,111.5C 38.6598,112.868 37.3264,114.201 36,115.5C 34.6898,114.87 33.8565,113.87 33.5,112.5C 35.8061,113.785 37.6394,113.118 39,110.5C 43.9088,100.786 49.7421,91.7861 56.5,83.5 Z"/></g>
<g><path style="opacity:0.059" fill="#f8d4ca" d="M 89.5,95.5 C 86.6641,101.178 83.3308,106.511 79.5,111.5C 81.8355,105.486 85.1688,100.152 89.5,95.5 Z"/></g>
<g><path style="opacity:0.341" fill="#f6c8bb" d="M 29.5,81.5 C 29.5402,84.4245 28.7068,87.0912 27,89.5C 26.3333,92.8333 26.3333,96.1667 27,99.5C 29.1932,103.886 31.3599,108.22 33.5,112.5C 24.5472,103.076 23.2139,92.7429 29.5,81.5 Z"/></g>
<g><path style="opacity:0.278" fill="#f7d0c1" d="M 58.5,100.5 C 57.6167,103.704 55.9501,106.371 53.5,108.5C 54.3833,105.296 56.0499,102.629 58.5,100.5 Z"/></g>
<g><path style="opacity:0.216" fill="#f6ccc0" d="M 98.5,101.5 C 98.1551,104.198 96.8218,106.198 94.5,107.5C 95.3403,105.147 96.6736,103.147 98.5,101.5 Z"/></g>
<g><path style="opacity:0.259" fill="#f8d2c9" d="M 53.5,108.5 C 52.6167,111.704 50.9501,114.371 48.5,116.5C 49.3833,113.296 51.0499,110.629 53.5,108.5 Z"/></g>
<g><path style="opacity:0.365" fill="#f6cabf" d="M 93.5,109.5 C 93.573,111.027 92.9063,112.027 91.5,112.5C 91.427,110.973 92.0937,109.973 93.5,109.5 Z"/></g>
<g><path style="opacity:0.055" fill="#f9d8d1" d="M 79.5,111.5 C 79.2503,113.674 78.2503,115.341 76.5,116.5C 76.7497,114.326 77.7497,112.659 79.5,111.5 Z"/></g>
<g><path style="opacity:0.29" fill="#f8d3ca" d="M 48.5,116.5 C 48.573,118.027 47.9063,119.027 46.5,119.5C 46.427,117.973 47.0937,116.973 48.5,116.5 Z"/></g>
<g><path style="opacity:0.208" fill="#f8d1c7" d="M 76.5,116.5 C 73.6641,122.178 70.3308,127.511 66.5,132.5C 68.8355,126.486 72.1688,121.152 76.5,116.5 Z"/></g>
<g><path style="opacity:0.094" fill="#fadbd2" d="M 124.5,78.5 C 130.002,85.184 131.169,92.5174 128,100.5C 119.199,115.807 109.699,130.474 99.5,144.5C 109.145,128.665 118.645,112.665 128,96.5C 128.667,93.1667 128.667,89.8333 128,86.5C 126.546,83.9289 125.38,81.2622 124.5,78.5 Z"/></g>
<g><path style="opacity:0.6" fill="#f4b9a9" d="M 45.5,122.5 C 45.5,125.833 45.5,129.167 45.5,132.5C 45.1667,132.5 44.8333,132.5 44.5,132.5C 43.2903,129.07 43.6236,125.737 45.5,122.5 Z"/></g>
<g><path style="opacity:0.122" fill="#fbddd5" d="M 66.5,132.5 C 65.6167,135.704 63.9501,138.371 61.5,140.5C 62.3833,137.296 64.0499,134.629 66.5,132.5 Z"/></g>
<g><path style="opacity:0.09" fill="#f8d0c2" d="M 61.5,140.5 C 61.573,142.027 60.9063,143.027 59.5,143.5C 59.427,141.973 60.0937,140.973 61.5,140.5 Z"/></g>
<g><path style="opacity:0.286" fill="#f8d2c6" d="M 91.5,112.5 C 89.4212,116.328 87.5879,120.328 86,124.5C 85.0229,129.734 85.6896,134.734 88,139.5C 90.6195,142.406 92.4528,145.739 93.5,149.5C 81.6522,137.531 80.9855,125.198 91.5,112.5 Z"/></g>
<g><path style="opacity:0.255" fill="#f8d3c9" d="M 44.5,132.5 C 44.8333,132.5 45.1667,132.5 45.5,132.5C 47.3602,138.553 50.0268,144.22 53.5,149.5C 50.7981,146.482 48.2981,143.149 46,139.5C 45.023,137.26 44.523,134.927 44.5,132.5 Z"/></g>
<g><path style="opacity:0.2" fill="#f9d8cf" d="M 59.5,143.5 C 59.2503,145.674 58.2503,147.341 56.5,148.5C 56.7497,146.326 57.7497,144.659 59.5,143.5 Z"/></g>
<g><path style="opacity:0.067" fill="#fad9d1" d="M 99.5,144.5 C 99.2503,146.674 98.2503,148.341 96.5,149.5C 96.7497,147.326 97.7497,145.659 99.5,144.5 Z"/></g>
<g><path style="opacity:0.051" fill="#fbe7d9" d="M 56.5,148.5 C 56.0135,151.715 55.0135,152.048 53.5,149.5C 54.609,149.443 55.609,149.11 56.5,148.5 Z"/></g>
<g><path style="opacity:0.329" fill="#f9ddd4" d="M 93.5,149.5 C 94.5,149.5 95.5,149.5 96.5,149.5C 95.5,152.167 94.5,152.167 93.5,149.5 Z"/></g>
</svg>
