<?xml version="1.0" encoding="UTF-8"?>
<svg version="1.1" xmlns="http://www.w3.org/2000/svg" width="150" height="150">
<path d="M0 0 C7.59 0 15.18 0 23 0 C23 0.66 23 1.32 23 2 C23.86238281 2.25265625 24.72476563 2.5053125 25.61328125 2.765625 C29.1745703 4.06362655 31.99998449 5.70682236 35.1875 7.75 C39.06728414 10.19842875 42.95463154 12.58214705 47 14.75 C52.65749888 17.79699124 58.27429496 20.91258096 63.875 24.0625 C64.79152344 24.56942383 65.70804687 25.07634766 66.65234375 25.59863281 C73.4378644 29.43360122 78.63325029 32.7280506 81.37994385 40.38755798 C82.74445477 46.13656257 82.40500932 52.09654432 82.36328125 57.97265625 C82.36276161 59.42418924 82.36328331 60.87572295 82.36479187 62.32725525 C82.36470256 65.35735696 82.35435614 68.38719035 82.33618164 71.41723633 C82.31347553 75.28613275 82.31295848 79.15463864 82.31969929 83.02358341 C82.32305251 86.01687545 82.31638412 89.01007969 82.30657005 92.00335503 C82.3027426 93.42939226 82.30155956 94.85543931 82.3031559 96.28148079 C82.30352989 98.27890363 82.28935987 100.27631287 82.2746582 102.27368164 C82.26774712 103.97289513 82.26774712 103.97289513 82.26069641 105.70643616 C81.90066271 110.25499883 81.23886154 114.48773453 78.30078125 118.07421875 C67.73759884 126.645131 67.73759884 126.645131 62.48754883 127.32568359 C60 127 60 127 58.33081055 125.47119141 C57.85426025 124.77171387 57.37770996 124.07223633 56.88671875 123.3515625 C56.0987793 122.21460937 56.0987793 122.21460937 55.29492188 121.0546875 C54.76447266 120.25289063 54.23402344 119.45109375 53.6875 118.625 C53.13771484 117.8309375 52.58792969 117.036875 52.02148438 116.21875 C48 110.32390334 48 110.32390334 48 108 C47.34 108 46.68 108 46 108 C45.44054687 106.99710937 44.88109375 105.99421875 44.3046875 104.9609375 C42.07724298 101.06437888 39.63499606 97.34369132 37.125 93.625 C36.47289551 92.64490967 36.47289551 92.64490967 35.80761719 91.64501953 C33.9030138 88.78811445 31.97863579 85.97091868 29.9453125 83.203125 C29.38585937 82.43484375 28.82640625 81.6665625 28.25 80.875 C27.76015625 80.23304687 27.2703125 79.59109375 26.765625 78.9296875 C26 77 26 77 26.6484375 74.6015625 C28.10229895 71.80308931 29.66869803 69.15259171 31.375 66.5 C32.25285156 65.12328125 32.25285156 65.12328125 33.1484375 63.71875 C35 61 35 61 37.1640625 58.34375 C39.1680962 56.05583398 39.1680962 56.05583398 40 53 C40.66 53 41.32 53 42 53 C42.10183594 52.42121094 42.20367187 51.84242187 42.30859375 51.24609375 C43.33551657 47.91004503 45.49597465 45.73299941 47.72265625 43.09765625 C49.28295239 40.53533507 49.314548 38.95075984 49 36 C45.99920534 32.99920534 37.81206292 34.08683147 33.8059082 33.96679688 C28.10325039 34.0295831 28.10325039 34.0295831 23.06396484 36.37841797 C19.78909267 40.13059093 17.99746395 44.48699788 16 49 C15.34 49 14.68 49 14 49 C13.87625 50.0828125 13.87625 50.0828125 13.75 51.1875 C12.8492343 54.56537138 11.2326044 56.34878227 9 59 C8.67 59.99 8.34 60.98 8 62 C7.34 62 6.68 62 6 62 C5.7525 62.70125 5.505 63.4025 5.25 64.125 C3.83440046 67.38087894 2.07362202 70.12368559 0 73 C-0.33 73 -0.66 73 -1 73 C-1.02315533 63.92494982 -1.0409314 54.8499098 -1.05181217 45.77483654 C-1.057034 41.56106206 -1.06411899 37.34730778 -1.07543945 33.13354492 C-1.08629315 29.06815199 -1.09228212 25.0027785 -1.09487724 20.93737221 C-1.096727 19.38521328 -1.10033904 17.83305544 -1.10573006 16.28090477 C-1.1129734 14.10936547 -1.11398954 11.93790683 -1.11352539 9.76635742 C-1.115746 8.52947678 -1.11796661 7.29259613 -1.12025452 6.01823425 C-1 3 -1 3 0 0 Z " fill="#7DAF44" transform="translate(64,0)"/>
<path d="M0 0 C0.00808685 1.19603348 0.01617371 2.39206696 0.02450562 3.62434387 C0.10190177 14.88135643 0.18962443 26.13824715 0.28752708 37.39510059 C0.33752921 43.1827281 0.38385891 48.97033701 0.421875 54.75805664 C0.45867829 60.34076485 0.50502472 65.92331886 0.55806351 71.50589561 C0.57663384 73.63857005 0.59173198 75.77127756 0.60334396 77.90400124 C0.62016124 80.88513697 0.64918535 83.86591753 0.68115234 86.84692383 C0.68331253 87.7338089 0.68547272 88.62069397 0.68769836 89.53445435 C0.69886185 90.34633713 0.71002533 91.15821991 0.7215271 91.9947052 C0.72705786 92.69987683 0.73258862 93.40504847 0.73828697 94.13158894 C0.90893832 96.33348392 0.90893832 96.33348392 3 99 C4.9130871 99.43041301 4.9130871 99.43041301 7.09765625 99.328125 C7.89880859 99.32296875 8.69996094 99.3178125 9.52539062 99.3125 C10.36263672 99.291875 11.19988281 99.27125 12.0625 99.25 C12.90361328 99.24484375 13.74472656 99.2396875 14.61132812 99.234375 C18.62608156 99.5701372 18.62608156 99.5701372 22 98 C22.16017166 95.19023482 22.25950534 92.40226404 22.31640625 89.58984375 C22.33718735 88.74780899 22.35796844 87.90577423 22.37937927 87.03822327 C22.44496812 84.33806821 22.50380276 81.63781283 22.5625 78.9375 C22.60567637 77.11131759 22.64929036 75.28514546 22.69335938 73.45898438 C22.80065894 68.97276008 22.90189966 64.4864345 23 60 C29.70558686 68.33524508 35.26633308 77.47287313 41.0625 86.453125 C43.46408464 90.17366503 45.87638207 93.88711525 48.29150391 97.59887695 C50.10667468 100.39591608 51.90831584 103.20156047 53.70996094 106.00732422 C54.97058566 107.95456475 56.25281398 109.8860278 57.5390625 111.81640625 C58.2974921 112.98136932 59.05534003 114.14671135 59.8125 115.3125 C60.47894531 116.31925781 61.14539063 117.32601562 61.83203125 118.36328125 C63 121 63 121 62.40185547 122.93432617 C58.7564462 128.30594022 51.8183672 131.40795072 45.63427734 132.70703125 C42.12181168 133.00935221 38.7119488 133.07457746 35.1875 133 C33.94846924 132.98219482 32.70943848 132.96438965 31.43286133 132.94604492 C21.56946938 132.53952768 15.72943894 130.38361549 8.06201172 124.46826172 C3.71116472 121.37022788 -1.074183 118.94232682 -5.75 116.375 C-32.18197591 101.71005325 -32.18197591 101.71005325 -34.66496277 93.91148376 C-36.07828866 86.89649234 -36.30638996 80.08415079 -36.30078125 72.94140625 C-36.30506638 71.71646957 -36.3093515 70.4915329 -36.31376648 69.22947693 C-36.31948184 66.65193293 -36.32003079 64.07437282 -36.31567383 61.49682617 C-36.31251225 57.57767972 -36.33601537 53.65928786 -36.36132812 49.74023438 C-36.3636014 47.22395928 -36.36430448 44.70768217 -36.36328125 42.19140625 C-36.37709587 40.45341515 -36.37709587 40.45341515 -36.39118958 38.68031311 C-36.34405886 30.29596094 -35.67382453 22.29240605 -31.15405273 15.03662109 C-26.98438506 11.09426954 -22.00404856 8.48635849 -17.0625 5.625 C-15.97775391 4.97144531 -14.89300781 4.31789063 -13.77539062 3.64453125 C-12.72673828 3.03222656 -11.67808594 2.41992188 -10.59765625 1.7890625 C-9.64383057 1.22912598 -8.69000488 0.66918945 -7.70727539 0.09228516 C-4.56096758 -1.17713329 -3.21802302 -0.78458153 0 0 Z " fill="#848484" transform="translate(40,18)"/>
<path d="M0 0 C1.12591553 0.00523682 2.25183105 0.01047363 3.41186523 0.01586914 C4.62680664 0.0190918 5.84174805 0.02231445 7.09350586 0.02563477 C8.37290039 0.03401367 9.65229492 0.04239258 10.97045898 0.05102539 C12.2537207 0.05553711 13.53698242 0.06004883 14.85913086 0.06469727 C18.04211921 0.07652994 21.22501661 0.09301471 24.40795898 0.11352539 C26.11234645 6.17356971 26.63559781 9.17315518 24.40795898 15.11352539 C22.42795898 15.44352539 20.44795898 15.77352539 18.40795898 16.11352539 C19.48197006 13.19835247 20.18606074 11.33542364 22.40795898 9.11352539 C22.65803629 6.57162537 22.65803629 6.57162537 22.40795898 4.11352539 C19.92826394 1.63383034 13.36408702 2.87950202 10.03295898 2.86352539 C8.96561523 2.84290039 7.89827148 2.82227539 6.79858398 2.80102539 C5.77506836 2.79586914 4.75155273 2.79071289 3.69702148 2.78540039 C2.75552246 2.77605469 1.81402344 2.76670898 0.84399414 2.75708008 C-1.9865965 3.1712575 -2.8475747 3.90653877 -4.59204102 6.11352539 C-3.52243186 0.15427435 -3.52243186 0.15427435 0 0 Z " fill="#84A955" transform="translate(90.592041015625,31.886474609375)"/>
<path d="M0 0 C0.33 0 0.66 0 1 0 C1.50910404 4.27647396 1.27301384 5.64998226 -1.4375 9.125 C-2.283125 10.07375 -3.12875 11.0225 -4 12 C-4.2165625 13.11375 -4.2165625 13.11375 -4.4375 14.25 C-4.623125 14.8275 -4.80875 15.405 -5 16 C-8.0625 17.25 -8.0625 17.25 -11 18 C-9.62262427 13.98265411 -7.66973875 11.27258299 -5 8 C-4.67 7.01 -4.34 6.02 -4 5 C-3.34 5 -2.68 5 -2 5 C-1.855625 4.360625 -1.71125 3.72125 -1.5625 3.0625 C-1 1 -1 1 0 0 Z " fill="#85AA56" transform="translate(108,48)"/>
<path d="M0 0 C0.33 0 0.66 0 1 0 C1 1.98 1 3.96 1 6 C2.32 5.67 3.64 5.34 5 5 C5.33 3.35 5.66 1.7 6 0 C6.99 0.33 7.98 0.66 9 1 C8.67 1.99 8.34 2.98 8 4 C7.34 4 6.68 4 6 4 C5.7525 4.721875 5.505 5.44375 5.25 6.1875 C4 9 4 9 0 14 C0 9.38 0 4.76 0 0 Z " fill="#83AC56" transform="translate(64,58)"/>
<path d="M0 0 C-8.261959 5.74031891 -8.261959 5.74031891 -13 5 C-13.66 3.68 -14.32 2.36 -15 1 C-13.948125 1.04125 -12.89625 1.0825 -11.8125 1.125 C-7.26922635 0.97604021 -4.26630831 -1.42210277 0 0 Z " fill="#86A855" transform="translate(137,122)"/>
<path d="M0 0 C10.74259681 5.0022779 10.74259681 5.0022779 14 9 C12.02 9.99 12.02 9.99 10 11 C10 9.68 10 8.36 10 7 C9.36191406 6.82984375 8.72382813 6.6596875 8.06640625 6.484375 C7.24011719 6.24203125 6.41382813 5.9996875 5.5625 5.75 C4.73878906 5.51796875 3.91507813 5.2859375 3.06640625 5.046875 C1 4 1 4 0.21484375 1.890625 C0.14394531 1.26671875 0.07304687 0.6428125 0 0 Z " fill="#86AA5A" transform="translate(128,25)"/>
<path d="M0 0 C4.95 2.64 9.9 5.28 15 8 C15 8.33 15 8.66 15 9 C9.375 9.25 9.375 9.25 6 7 C6 6.34 6 5.68 6 5 C5.195625 4.731875 4.39125 4.46375 3.5625 4.1875 C2.716875 3.795625 1.87125 3.40375 1 3 C0.67 2.01 0.34 1.02 0 0 Z " fill="#84A95B" transform="translate(113,16)"/>
<path d="M0 0 C0.6875 1.8125 0.6875 1.8125 1 4 C-0.3125 5.4375 -0.3125 5.4375 -2 7 C-3.19027984 9.59915538 -3.19027984 9.59915538 -4 12 C-4.66 11.67 -5.32 11.34 -6 11 C-4.54955729 6.89041233 -2.48889248 3.56741255 0 0 Z " fill="#87AB5D" transform="translate(96,66)"/>
<path d="M0 0 C3.3 1.65 6.6 3.3 10 5 C9.34 5.66 8.68 6.32 8 7 C4.5625 5.75 4.5625 5.75 1 4 C0.67 2.68 0.34 1.36 0 0 Z " fill="#86AB56" transform="translate(95,6)"/>
<path d="M0 0 C0.99 0.33 1.98 0.66 3 1 C2.02526874 2.66926454 1.04510211 4.33535642 0.0625 6 C-0.75541016 7.3921875 -0.75541016 7.3921875 -1.58984375 8.8125 C-2.05519531 9.534375 -2.52054687 10.25625 -3 11 C-3.33 11 -3.66 11 -4 11 C-4 9.35 -4 7.7 -4 6 C-3.01 5.67 -2.02 5.34 -1 5 C-0.67 3.35 -0.34 1.7 0 0 Z " fill="#86AB57" transform="translate(83,38)"/>
<path d="M0 0 C1.32 0 2.64 0 4 0 C4.33 2.64 4.66 5.28 5 8 C2.74754119 5.31158141 1.11786042 3.35358125 0 0 Z " fill="#88AD5F" transform="translate(101,92)"/>
<path d="M0 0 C3.465 1.485 3.465 1.485 7 3 C6.34 3.66 5.68 4.32 5 5 C2.875 4.625 2.875 4.625 1 4 C0.67 2.68 0.34 1.36 0 0 Z " fill="#86AA57" transform="translate(88,2)"/>
<path d="M0 0 C0.33 0.99 0.66 1.98 1 3 C-0.9375 6.1875 -0.9375 6.1875 -3 9 C-4 6 -4 6 -3.1875 3.375 C-2 1 -2 1 0 0 Z " fill="#89A95D" transform="translate(77,49)"/>
</svg>
